<svg xmlns="http://www.w3.org/2000/svg" viewBox="0 0 1100 780" role="img" aria-label="Kitchen design presentation board illustration">
  <defs><linearGradient id="bg" x2="1" y2="1"><stop stop-color="#e6e1d8"/><stop offset="1" stop-color="#cfc6b9"/></linearGradient><filter id="s"><feDropShadow dy="22" stdDeviation="20" flood-color="#17211d" flood-opacity=".2"/></filter></defs>
  <rect width="1100" height="780" rx="24" fill="url(#bg)"/>
  <g transform="translate(88 76) rotate(-4 330 265)" filter="url(#s)"><rect width="660" height="530" rx="8" fill="#fff"/><text x="42" y="58" font-family="Arial,sans-serif" font-size="18" letter-spacing="4" fill="#17211d">TEMIMA DESIGN STUDIO</text><path d="M55 122h540v340H55z" fill="#f4f1ea" stroke="#bcb7af" stroke-width="3"/><path d="M115 176h180v85H115zm0 112h180v122H115zm210-112h205v234H325z" fill="none" stroke="#294137" stroke-width="8"/><path d="M55 98h540M325 122v340" stroke="#d5d1ca" stroke-width="2"/><text x="62" y="495" font-family="Arial,sans-serif" font-size="15" fill="#646b67">PLAN 01  •  WHITE SHAKER  •  12' × 10'</text></g>
  <g transform="translate(598 190) rotate(7 200 220)" filter="url(#s)"><rect width="410" height="455" rx="8" fill="#faf8f4"/><rect x="26" y="27" width="358" height="257" fill="#d8d2c8"/><rect x="52" y="110" width="290" height="140" fill="#f9f7f3"/><path d="M52 110h290M120 110v140m92-140v140" stroke="#bab5ad" stroke-width="5"/><rect x="84" y="168" width="225" height="82" fill="#263a32"/><path d="M46 321h318M46 351h245M46 381h278" stroke="#d1ccc4" stroke-width="9"/><circle cx="62" cy="420" r="18" fill="#1f342c"/><text x="92" y="427" font-family="Arial,sans-serif" font-size="17" fill="#17211d">Itemized cabinet schedule</text></g>
</svg>
